<svg width="340" height="39" viewBox="0 0 340 39" fill="none" xmlns="http://www.w3.org/2000/svg">
<path d="M3 20C5.33579 17.5226 8.50702 16 12 16C15.493 16 18.6642 17.5226 21 20M16.5 7.5C16.5 9.98528 14.4853 12 12 12C9.51472 12 7.5 9.98528 7.5 7.5C7.5 5.01472 9.51472 3 12 3C14.4853 3 16.5 5.01472 16.5 7.5Z" stroke="white" stroke-linecap="round" stroke-linejoin="round"/>
<path d="M39.456 15.5V5.7H40.184V14.45L46.554 5.7H47.268V15.5H46.54V6.75L40.184 15.5H39.456ZM50.0208 15.5V8.36H50.6368L53.5488 12.462L56.4608 8.36H57.0768V15.5H56.3908V9.55L53.5208 13.498L50.6788 9.55V15.5H50.0208ZM59.1128 15.5L61.3668 12.658C60.2328 12.448 59.3088 11.678 59.3088 10.488C59.3088 9.228 60.2888 8.36 61.9268 8.36H65.1188V15.5H64.4328V12.756H62.0808L59.9528 15.5H59.1128ZM62.0528 12.14H64.4328V8.976H62.0248C60.7788 8.976 60.0508 9.592 60.0508 10.53C60.0508 11.524 60.9048 12.14 62.0528 12.14Z" fill="white"/>
<rect y="38" width="340" height="1" fill="white"/>
</svg>
