<svg width="340" height="39" viewBox="0 0 340 39" fill="none" xmlns="http://www.w3.org/2000/svg">
<path d="M8.38028 8.85323C9.07627 10.3028 10.0251 11.6615 11.2266 12.8631C12.4282 14.0646 13.7869 15.0134 15.2365 15.7094C15.3612 15.7693 15.4235 15.7992 15.5024 15.8222C15.7828 15.904 16.127 15.8453 16.3644 15.6752C16.4313 15.6274 16.4884 15.5702 16.6027 15.4559C16.9523 15.1063 17.1271 14.9315 17.3029 14.8172C17.9658 14.3862 18.8204 14.3862 19.4833 14.8172C19.6591 14.9315 19.8339 15.1063 20.1835 15.4559L20.3783 15.6508C20.9098 16.1822 21.1755 16.448 21.3198 16.7333C21.6069 17.3009 21.6069 17.9712 21.3198 18.5387C21.1755 18.8241 20.9098 19.0898 20.3783 19.6213L20.2207 19.7789C19.6911 20.3085 19.4263 20.5733 19.0662 20.7756C18.6667 21 18.0462 21.1614 17.588 21.16C17.1751 21.1588 16.8928 21.0787 16.3284 20.9185C13.295 20.0575 10.4326 18.433 8.04466 16.045C5.65668 13.6571 4.03221 10.7947 3.17124 7.76131C3.01103 7.19687 2.93092 6.91464 2.9297 6.5017C2.92833 6.04347 3.08969 5.42298 3.31411 5.02348C3.51636 4.66345 3.78117 4.39863 4.3108 3.86901L4.46843 3.71138C4.99987 3.17993 5.2656 2.91421 5.55098 2.76987C6.11854 2.4828 6.7888 2.4828 7.35636 2.76987C7.64174 2.91421 7.90747 3.17993 8.43891 3.71138L8.63378 3.90625C8.98338 4.25585 9.15819 4.43065 9.27247 4.60643C9.70347 5.26932 9.70347 6.1239 9.27247 6.78679C9.15819 6.96257 8.98338 7.13738 8.63378 7.48698C8.51947 7.60129 8.46231 7.65845 8.41447 7.72526C8.24446 7.96269 8.18576 8.30695 8.26748 8.5873C8.29048 8.6662 8.32041 8.72854 8.38028 8.85323Z" stroke="white" stroke-linecap="round" stroke-linejoin="round"/>
<path d="M42.872 17.474C40.408 16.074 38.994 14.016 38.994 11.482C38.994 8.948 40.408 6.89 42.872 5.49L43.166 5.952C40.954 7.31 39.722 9.144 39.722 11.482C39.722 13.82 40.954 15.654 43.166 17.012L42.872 17.474ZM48.1456 13.918V10.908H45.1076V10.236H48.1456V7.226H48.8456V10.236H51.8836V10.908H48.8456V13.918H48.1456ZM57.0727 15.668C55.8547 15.668 54.9307 15.136 54.1187 14.45L54.5807 13.89C55.4067 14.632 56.1907 15.01 57.0867 15.01C58.9907 15.01 60.3347 13.064 60.3347 10.292V9.956C59.7747 10.964 58.8227 11.846 57.2827 11.846C55.3087 11.846 53.8947 10.53 53.8947 8.822C53.8947 7.016 55.2947 5.532 57.3387 5.532C58.3887 5.532 59.2427 5.938 59.8307 6.526C60.5867 7.282 61.0627 8.388 61.0627 10.376C61.0627 13.456 59.3547 15.668 57.0727 15.668ZM57.3107 11.202C58.9767 11.202 60.0407 9.942 60.0407 8.682C60.0407 7.296 58.8787 6.19 57.2547 6.19C55.6447 6.19 54.6507 7.436 54.6507 8.822C54.6507 10.194 55.7567 11.202 57.3107 11.202ZM66.0551 15.668C64.8371 15.668 63.9131 15.136 63.1011 14.45L63.5631 13.89C64.3891 14.632 65.1731 15.01 66.0691 15.01C67.9731 15.01 69.3171 13.064 69.3171 10.292V9.956C68.7571 10.964 67.8051 11.846 66.2651 11.846C64.2911 11.846 62.8771 10.53 62.8771 8.822C62.8771 7.016 64.2771 5.532 66.3211 5.532C67.3711 5.532 68.2251 5.938 68.8131 6.526C69.5691 7.282 70.0451 8.388 70.0451 10.376C70.0451 13.456 68.3371 15.668 66.0551 15.668ZM66.2931 11.202C67.9591 11.202 69.0231 9.942 69.0231 8.682C69.0231 7.296 67.8611 6.19 66.2371 6.19C64.6271 6.19 63.6331 7.436 63.6331 8.822C63.6331 10.194 64.7391 11.202 66.2931 11.202ZM75.5695 15.668C74.5615 15.668 73.6655 15.276 73.0775 14.688C72.2655 13.876 71.8315 12.896 71.8315 10.838C71.8315 7.884 73.3855 5.532 75.8215 5.532C76.9415 5.532 77.7955 5.966 78.6495 6.666L78.1875 7.226C77.4315 6.554 76.6895 6.19 75.7655 6.19C73.8335 6.19 72.5595 8.164 72.5595 11.034V11.272C73.1195 10.32 74.0295 9.452 75.6255 9.452C77.4035 9.452 78.9995 10.67 78.9995 12.448C78.9995 14.296 77.5015 15.668 75.5695 15.668ZM75.6255 15.01C77.2075 15.01 78.2435 13.862 78.2435 12.448C78.2435 11.104 77.1375 10.096 75.5835 10.096C73.9735 10.096 72.8535 11.314 72.8535 12.546C72.8535 13.946 74.0435 15.01 75.6255 15.01ZM81.066 17.474L80.772 17.012C82.984 15.654 84.216 13.82 84.216 11.482C84.216 9.144 82.984 7.31 80.772 5.952L81.066 5.49C83.53 6.89 84.944 8.948 84.944 11.482C84.944 14.016 83.53 16.074 81.066 17.474Z" fill="white"/>
<rect y="38" width="340" height="1" fill="white"/>
</svg>
