<svg width="112" height="54" viewBox="0 0 112 54" fill="none" xmlns="http://www.w3.org/2000/svg">
<circle cx="27" cy="27" r="27" fill="#03927E"/>
<path d="M34.3864 27.1818C34.3864 28.4242 34.1591 29.4924 33.7045 30.3864C33.25 31.2765 32.6269 31.9621 31.8352 32.4432C31.0473 32.9205 30.1515 33.1591 29.1477 33.1591C28.1402 33.1591 27.2405 32.9205 26.4489 32.4432C25.661 31.9621 25.0398 31.2746 24.5852 30.3807C24.1307 29.4867 23.9034 28.4205 23.9034 27.1818C23.9034 25.9394 24.1307 24.8731 24.5852 23.983C25.0398 23.089 25.661 22.4034 26.4489 21.9261C27.2405 21.4451 28.1402 21.2045 29.1477 21.2045C30.1515 21.2045 31.0473 21.4451 31.8352 21.9261C32.6269 22.4034 33.25 23.089 33.7045 23.983C34.1591 24.8731 34.3864 25.9394 34.3864 27.1818ZM32.6477 27.1818C32.6477 26.2348 32.4943 25.4375 32.1875 24.7898C31.8845 24.1383 31.4678 23.6458 30.9375 23.3125C30.411 22.9754 29.8144 22.8068 29.1477 22.8068C28.4773 22.8068 27.8788 22.9754 27.3523 23.3125C26.8258 23.6458 26.4091 24.1383 26.1023 24.7898C25.7992 25.4375 25.6477 26.2348 25.6477 27.1818C25.6477 28.1288 25.7992 28.928 26.1023 29.5795C26.4091 30.2273 26.8258 30.7197 27.3523 31.0568C27.8788 31.3902 28.4773 31.5568 29.1477 31.5568C29.8144 31.5568 30.411 31.3902 30.9375 31.0568C31.4678 30.7197 31.8845 30.2273 32.1875 29.5795C32.4943 28.928 32.6477 28.1288 32.6477 27.1818ZM35.9503 25.7386V24.2727H43.3139V25.7386H40.4673V33H38.8082V25.7386H35.9503ZM45.1108 33V24.2727H52.2301V33H50.5653V25.7386H46.7642V33H45.1108ZM54.5014 36.2727V24.2727H56.1605V25.6875H56.3026C56.401 25.5057 56.5431 25.2955 56.7287 25.0568C56.9143 24.8182 57.1719 24.6098 57.5014 24.4318C57.831 24.25 58.2666 24.1591 58.8082 24.1591C59.5128 24.1591 60.1416 24.3371 60.6946 24.6932C61.2476 25.0492 61.6813 25.5625 61.9957 26.233C62.3139 26.9034 62.473 27.7102 62.473 28.6534C62.473 29.5966 62.3158 30.4053 62.0014 31.0795C61.687 31.75 61.2552 32.267 60.706 32.6307C60.1567 32.9905 59.5298 33.1705 58.8253 33.1705C58.295 33.1705 57.8613 33.0814 57.5241 32.9034C57.1908 32.7254 56.9295 32.517 56.7401 32.2784C56.5507 32.0398 56.4048 31.8277 56.3026 31.642H56.2003V36.2727H54.5014ZM56.1662 28.6364C56.1662 29.25 56.2552 29.7879 56.4332 30.25C56.6113 30.7121 56.8688 31.0739 57.206 31.3352C57.5431 31.5928 57.956 31.7216 58.4446 31.7216C58.9522 31.7216 59.3764 31.5871 59.7173 31.3182C60.0582 31.0455 60.3158 30.6761 60.4901 30.2102C60.6681 29.7443 60.7571 29.2197 60.7571 28.6364C60.7571 28.0606 60.67 27.5436 60.4957 27.0852C60.3253 26.6269 60.0677 26.2652 59.723 26C59.3821 25.7348 58.956 25.6023 58.4446 25.6023C57.9522 25.6023 57.5355 25.7292 57.1946 25.983C56.8575 26.2367 56.6018 26.5909 56.4276 27.0455C56.2533 27.5 56.1662 28.0303 56.1662 28.6364ZM66.9162 33.1932C66.3632 33.1932 65.8632 33.0909 65.4162 32.8864C64.9692 32.678 64.6151 32.3769 64.3537 31.983C64.0961 31.589 63.9673 31.1061 63.9673 30.5341C63.9673 30.0417 64.062 29.6364 64.2514 29.3182C64.4408 29 64.6965 28.7481 65.0185 28.5625C65.3404 28.3769 65.7003 28.2367 66.098 28.142C66.4957 28.0473 66.901 27.9754 67.3139 27.9261C67.8366 27.8655 68.2609 27.8163 68.5866 27.7784C68.9124 27.7367 69.1491 27.6705 69.2969 27.5795C69.4446 27.4886 69.5185 27.3409 69.5185 27.1364V27.0966C69.5185 26.6004 69.3783 26.2159 69.098 25.9432C68.8215 25.6705 68.4086 25.5341 67.8594 25.5341C67.2874 25.5341 66.8366 25.661 66.5071 25.9148C66.1813 26.1648 65.956 26.4432 65.831 26.75L64.2344 26.3864C64.4238 25.8561 64.7003 25.428 65.0639 25.1023C65.4313 24.7727 65.8537 24.5341 66.331 24.3864C66.8082 24.2348 67.3101 24.1591 67.8366 24.1591C68.1851 24.1591 68.5545 24.2008 68.9446 24.2841C69.3385 24.3636 69.706 24.5114 70.0469 24.7273C70.3916 24.9432 70.6738 25.2519 70.8935 25.6534C71.1132 26.0511 71.223 26.5682 71.223 27.2045V33H69.5639V31.8068H69.4957C69.3859 32.0265 69.2211 32.2424 69.0014 32.4545C68.7817 32.6667 68.4995 32.8428 68.1548 32.983C67.8101 33.1231 67.3973 33.1932 66.9162 33.1932ZM67.2855 31.8295C67.7552 31.8295 68.1567 31.7367 68.4901 31.5511C68.8272 31.3655 69.0829 31.1231 69.2571 30.8239C69.4351 30.5208 69.5241 30.197 69.5241 29.8523V28.7273C69.4635 28.7879 69.3461 28.8447 69.1719 28.8977C69.0014 28.947 68.8063 28.9905 68.5866 29.0284C68.367 29.0625 68.1529 29.0947 67.9446 29.125C67.7363 29.1515 67.562 29.1742 67.4219 29.1932C67.0923 29.2348 66.7912 29.3049 66.5185 29.4034C66.2495 29.5019 66.0336 29.6439 65.8707 29.8295C65.7116 30.0114 65.6321 30.2538 65.6321 30.5568C65.6321 30.9773 65.7874 31.2955 66.098 31.5114C66.4086 31.7235 66.8045 31.8295 67.2855 31.8295ZM73.4858 33V24.2727H77.1051C78.09 24.2727 78.8703 24.483 79.446 24.9034C80.0218 25.3201 80.3097 25.8864 80.3097 26.6023C80.3097 27.1136 80.1468 27.5189 79.821 27.8182C79.4953 28.1174 79.0634 28.3182 78.5256 28.4205C78.9157 28.4659 79.2737 28.5833 79.5994 28.7727C79.9252 28.9583 80.1866 29.2083 80.3835 29.5227C80.5843 29.8371 80.6847 30.2121 80.6847 30.6477C80.6847 31.1098 80.5653 31.5189 80.3267 31.875C80.0881 32.2273 79.7415 32.5038 79.2869 32.7045C78.8362 32.9015 78.2926 33 77.6562 33H73.4858ZM75.0824 31.5795H77.6562C78.0767 31.5795 78.4063 31.4792 78.6449 31.2784C78.8835 31.0777 79.0028 30.8049 79.0028 30.4602C79.0028 30.0549 78.8835 29.7367 78.6449 29.5057C78.4063 29.2708 78.0767 29.1534 77.6562 29.1534H75.0824V31.5795ZM75.0824 27.9091H77.1222C77.4403 27.9091 77.7131 27.8636 77.9403 27.7727C78.1714 27.6818 78.3475 27.553 78.4688 27.3864C78.5938 27.2159 78.6562 27.0152 78.6562 26.7841C78.6562 26.447 78.518 26.1837 78.2415 25.9943C77.965 25.8049 77.5862 25.7102 77.1051 25.7102H75.0824V27.9091ZM84.2131 30.6193L88.0597 24.2727H89.8892V33H88.2244V26.6477L84.3949 33H82.5483V24.2727H84.2131V30.6193ZM91.0909 25.7386V24.2727H98.4545V25.7386H95.608V33H93.9489V25.7386H91.0909ZM101.53 27.2727H104.064C105.132 27.2727 105.954 27.5379 106.53 28.0682C107.106 28.5985 107.393 29.2822 107.393 30.1193C107.393 30.6648 107.265 31.1553 107.007 31.5909C106.75 32.0265 106.373 32.3712 105.876 32.625C105.38 32.875 104.776 33 104.064 33H100.251V24.2727H101.916V31.5341H104.064C104.553 31.5341 104.954 31.4072 105.268 31.1534C105.583 30.8958 105.74 30.5682 105.74 30.1705C105.74 29.75 105.583 29.4072 105.268 29.142C104.954 28.8731 104.553 28.7386 104.064 28.7386H101.53V27.2727Z" fill="white"/>
</svg>
